<mxfile host="app.diagrams.net" modified="2023-08-21T10:02:36.363Z" agent="Mozilla/5.0 (X11; Ubuntu; Linux x86_64; rv:105.0) Gecko/20100101 Firefox/105.0" etag="pO6cN23WAJzRLx7RkHDZ" version="21.6.8" type="device">
  <diagram name="Page-1" id="aREK3ujJ28W4pkGUr15T">
    <mxGraphModel dx="1608" dy="935" grid="1" gridSize="10" guides="1" tooltips="1" connect="1" arrows="1" fold="1" page="1" pageScale="1" pageWidth="850" pageHeight="1100" math="0" shadow="0">
      <root>
        <mxCell id="0" />
        <mxCell id="1" parent="0" />
        <mxCell id="hyikX5WwgJSt7p9jt4j9-111" value="" style="rounded=0;whiteSpace=wrap;html=1;strokeWidth=2;fillColor=none;" vertex="1" parent="1">
          <mxGeometry x="40" y="14" width="720" height="826" as="geometry" />
        </mxCell>
        <mxCell id="hyikX5WwgJSt7p9jt4j9-76" value="&lt;font style=&quot;font-size: 24px;&quot;&gt;Free memory chunk&lt;br&gt;&lt;/font&gt;" style="rounded=0;whiteSpace=wrap;html=1;strokeWidth=2;fillColor=#fff2cc;strokeColor=default;" vertex="1" parent="1">
          <mxGeometry x="121" y="266" width="560" height="42" as="geometry" />
        </mxCell>
        <mxCell id="hyikX5WwgJSt7p9jt4j9-2" value="&lt;font style=&quot;font-size: 24px;&quot;&gt;Free memory chunk&lt;br&gt;&lt;/font&gt;" style="rounded=0;whiteSpace=wrap;html=1;strokeWidth=2;fillColor=#fff2cc;strokeColor=default;" vertex="1" parent="1">
          <mxGeometry x="120" y="88" width="560" height="42" as="geometry" />
        </mxCell>
        <mxCell id="hyikX5WwgJSt7p9jt4j9-3" value="&lt;font style=&quot;font-size: 24px;&quot;&gt;0&lt;/font&gt;" style="text;html=1;strokeColor=none;fillColor=none;align=center;verticalAlign=middle;whiteSpace=wrap;rounded=0;" vertex="1" parent="1">
          <mxGeometry x="100" y="127" width="60" height="30" as="geometry" />
        </mxCell>
        <mxCell id="hyikX5WwgJSt7p9jt4j9-5" value="&lt;font style=&quot;font-size: 24px;&quot;&gt;4MB&lt;/font&gt;" style="text;html=1;strokeColor=none;fillColor=none;align=center;verticalAlign=middle;whiteSpace=wrap;rounded=0;" vertex="1" parent="1">
          <mxGeometry x="630" y="127" width="60" height="30" as="geometry" />
        </mxCell>
        <mxCell id="hyikX5WwgJSt7p9jt4j9-9" value="" style="endArrow=classic;html=1;rounded=0;strokeWidth=3;" edge="1" parent="1">
          <mxGeometry width="50" height="50" relative="1" as="geometry">
            <mxPoint x="400" y="44" as="sourcePoint" />
            <mxPoint x="400" y="87" as="targetPoint" />
          </mxGeometry>
        </mxCell>
        <mxCell id="hyikX5WwgJSt7p9jt4j9-10" value="&lt;font style=&quot;font-size: 24px;&quot;&gt;memalloc(16KB)&lt;/font&gt;" style="text;html=1;strokeColor=none;fillColor=none;align=center;verticalAlign=middle;whiteSpace=wrap;rounded=0;" vertex="1" parent="1">
          <mxGeometry x="330" y="14" width="140" height="30" as="geometry" />
        </mxCell>
        <mxCell id="hyikX5WwgJSt7p9jt4j9-16" value="&lt;font style=&quot;font-size: 24px;&quot;&gt;0&lt;/font&gt;" style="text;html=1;strokeColor=none;fillColor=none;align=center;verticalAlign=middle;whiteSpace=wrap;rounded=0;" vertex="1" parent="1">
          <mxGeometry x="100" y="306" width="60" height="30" as="geometry" />
        </mxCell>
        <mxCell id="hyikX5WwgJSt7p9jt4j9-17" value="&lt;font style=&quot;font-size: 24px;&quot;&gt;4MB&lt;/font&gt;" style="text;html=1;strokeColor=none;fillColor=none;align=center;verticalAlign=middle;whiteSpace=wrap;rounded=0;" vertex="1" parent="1">
          <mxGeometry x="630" y="306" width="60" height="30" as="geometry" />
        </mxCell>
        <mxCell id="hyikX5WwgJSt7p9jt4j9-20" value="&lt;font style=&quot;font-size: 18px;&quot;&gt;16KB&lt;/font&gt;" style="rounded=0;whiteSpace=wrap;html=1;strokeWidth=2;fillColor=#e1d5e7;strokeColor=default;" vertex="1" parent="1">
          <mxGeometry x="120" y="266" width="50" height="41" as="geometry" />
        </mxCell>
        <mxCell id="hyikX5WwgJSt7p9jt4j9-21" value="&lt;font style=&quot;font-size: 24px;&quot;&gt;16KB allocated&lt;br&gt;&lt;/font&gt;" style="text;html=1;strokeColor=none;fillColor=none;align=center;verticalAlign=middle;whiteSpace=wrap;rounded=0;" vertex="1" parent="1">
          <mxGeometry x="75" y="216" width="140" height="30" as="geometry" />
        </mxCell>
        <mxCell id="hyikX5WwgJSt7p9jt4j9-24" value="&lt;font style=&quot;font-size: 24px;&quot;&gt;memalloc(512KB)&lt;/font&gt;" style="text;html=1;strokeColor=none;fillColor=none;align=center;verticalAlign=middle;whiteSpace=wrap;rounded=0;" vertex="1" parent="1">
          <mxGeometry x="331" y="193" width="140" height="30" as="geometry" />
        </mxCell>
        <mxCell id="hyikX5WwgJSt7p9jt4j9-63" value="&lt;font style=&quot;font-size: 24px;&quot;&gt;(a)&lt;/font&gt;" style="text;html=1;strokeColor=none;fillColor=none;align=center;verticalAlign=middle;whiteSpace=wrap;rounded=0;" vertex="1" parent="1">
          <mxGeometry x="370" y="133" width="60" height="30" as="geometry" />
        </mxCell>
        <mxCell id="hyikX5WwgJSt7p9jt4j9-64" value="&lt;font style=&quot;font-size: 24px;&quot;&gt;(b)&lt;/font&gt;" style="text;html=1;strokeColor=none;fillColor=none;align=center;verticalAlign=middle;whiteSpace=wrap;rounded=0;" vertex="1" parent="1">
          <mxGeometry x="365" y="306" width="60" height="30" as="geometry" />
        </mxCell>
        <mxCell id="hyikX5WwgJSt7p9jt4j9-69" value="" style="endArrow=classic;html=1;rounded=0;strokeWidth=3;" edge="1" parent="1">
          <mxGeometry width="50" height="50" relative="1" as="geometry">
            <mxPoint x="399.6" y="223" as="sourcePoint" />
            <mxPoint x="399.6" y="266" as="targetPoint" />
          </mxGeometry>
        </mxCell>
        <mxCell id="hyikX5WwgJSt7p9jt4j9-77" value="" style="endArrow=none;dashed=1;html=1;dashPattern=1 3;strokeWidth=2;rounded=0;" edge="1" parent="1">
          <mxGeometry width="50" height="50" relative="1" as="geometry">
            <mxPoint x="395.6" y="410" as="sourcePoint" />
            <mxPoint x="395.6" y="350" as="targetPoint" />
          </mxGeometry>
        </mxCell>
        <mxCell id="hyikX5WwgJSt7p9jt4j9-78" value="&lt;font style=&quot;font-size: 24px;&quot;&gt;&amp;nbsp;&amp;nbsp;&amp;nbsp;&amp;nbsp;&amp;nbsp;&amp;nbsp;&amp;nbsp;&amp;nbsp;&amp;nbsp;&amp;nbsp;&amp;nbsp;&amp;nbsp;&amp;nbsp;&amp;nbsp;&amp;nbsp;&amp;nbsp;&amp;nbsp;&amp;nbsp;&amp;nbsp;&amp;nbsp;&amp;nbsp;&amp;nbsp;&amp;nbsp;&amp;nbsp;&amp;nbsp;&amp;nbsp;&amp;nbsp;&amp;nbsp;&amp;nbsp;&amp;nbsp;&amp;nbsp;&amp;nbsp;&amp;nbsp;&amp;nbsp;&amp;nbsp;&amp;nbsp;&amp;nbsp;&amp;nbsp;&amp;nbsp;&amp;nbsp;&amp;nbsp;&amp;nbsp;&amp;nbsp;&amp;nbsp;&amp;nbsp;&amp;nbsp;&amp;nbsp;&amp;nbsp; Free memory chunk&lt;br&gt;&lt;/font&gt;" style="rounded=0;whiteSpace=wrap;html=1;strokeWidth=2;fillColor=#fff2cc;strokeColor=default;" vertex="1" parent="1">
          <mxGeometry x="122" y="471" width="560" height="42" as="geometry" />
        </mxCell>
        <mxCell id="hyikX5WwgJSt7p9jt4j9-79" value="&lt;font style=&quot;font-size: 24px;&quot;&gt;0&lt;/font&gt;" style="text;html=1;strokeColor=none;fillColor=none;align=center;verticalAlign=middle;whiteSpace=wrap;rounded=0;" vertex="1" parent="1">
          <mxGeometry x="101" y="511" width="60" height="30" as="geometry" />
        </mxCell>
        <mxCell id="hyikX5WwgJSt7p9jt4j9-80" value="&lt;font style=&quot;font-size: 24px;&quot;&gt;4MB&lt;/font&gt;" style="text;html=1;strokeColor=none;fillColor=none;align=center;verticalAlign=middle;whiteSpace=wrap;rounded=0;" vertex="1" parent="1">
          <mxGeometry x="631" y="511" width="60" height="30" as="geometry" />
        </mxCell>
        <mxCell id="hyikX5WwgJSt7p9jt4j9-81" value="&lt;font style=&quot;font-size: 18px;&quot;&gt;16KB&lt;/font&gt;" style="rounded=0;whiteSpace=wrap;html=1;strokeWidth=2;fillColor=#e1d5e7;strokeColor=default;" vertex="1" parent="1">
          <mxGeometry x="121" y="471" width="50" height="41" as="geometry" />
        </mxCell>
        <mxCell id="hyikX5WwgJSt7p9jt4j9-84" value="&lt;font style=&quot;font-size: 24px;&quot;&gt;(c)&lt;/font&gt;" style="text;html=1;strokeColor=none;fillColor=none;align=center;verticalAlign=middle;whiteSpace=wrap;rounded=0;" vertex="1" parent="1">
          <mxGeometry x="366" y="511" width="60" height="30" as="geometry" />
        </mxCell>
        <mxCell id="hyikX5WwgJSt7p9jt4j9-86" value="&lt;font style=&quot;font-size: 18px;&quot;&gt;512KB&lt;/font&gt;" style="rounded=0;whiteSpace=wrap;html=1;strokeWidth=2;fillColor=#e1d5e7;strokeColor=default;" vertex="1" parent="1">
          <mxGeometry x="171" y="471.5" width="79" height="41" as="geometry" />
        </mxCell>
        <mxCell id="hyikX5WwgJSt7p9jt4j9-87" value="&lt;font style=&quot;font-size: 18px;&quot;&gt;1MB&lt;/font&gt;" style="rounded=0;whiteSpace=wrap;html=1;strokeWidth=2;fillColor=#e1d5e7;strokeColor=default;" vertex="1" parent="1">
          <mxGeometry x="250" y="472" width="140" height="41" as="geometry" />
        </mxCell>
        <mxCell id="hyikX5WwgJSt7p9jt4j9-88" value="&lt;font style=&quot;font-size: 18px;&quot;&gt;1KB&lt;/font&gt;" style="rounded=0;whiteSpace=wrap;html=1;strokeWidth=2;fillColor=#e1d5e7;strokeColor=default;" vertex="1" parent="1">
          <mxGeometry x="390" y="472" width="40" height="41" as="geometry" />
        </mxCell>
        <mxCell id="hyikX5WwgJSt7p9jt4j9-89" value="&lt;font style=&quot;font-size: 24px;&quot;&gt;memfree(512KB)&lt;/font&gt;" style="text;html=1;strokeColor=none;fillColor=none;align=center;verticalAlign=middle;whiteSpace=wrap;rounded=0;" vertex="1" parent="1">
          <mxGeometry x="146" y="398" width="140" height="30" as="geometry" />
        </mxCell>
        <mxCell id="hyikX5WwgJSt7p9jt4j9-90" value="" style="endArrow=classic;html=1;rounded=0;strokeWidth=3;" edge="1" parent="1">
          <mxGeometry width="50" height="50" relative="1" as="geometry">
            <mxPoint x="211" y="429" as="sourcePoint" />
            <mxPoint x="211" y="472" as="targetPoint" />
          </mxGeometry>
        </mxCell>
        <mxCell id="hyikX5WwgJSt7p9jt4j9-91" value="&lt;font style=&quot;font-size: 24px;&quot;&gt;&amp;nbsp;&amp;nbsp;&amp;nbsp;&amp;nbsp;&amp;nbsp;&amp;nbsp;&amp;nbsp;&amp;nbsp;&amp;nbsp;&amp;nbsp;&amp;nbsp;&amp;nbsp;&amp;nbsp;&amp;nbsp;&amp;nbsp;&amp;nbsp;&amp;nbsp;&amp;nbsp;&amp;nbsp;&amp;nbsp;&amp;nbsp;&amp;nbsp;&amp;nbsp;&amp;nbsp;&amp;nbsp;&amp;nbsp;&amp;nbsp;&amp;nbsp;&amp;nbsp;&amp;nbsp;&amp;nbsp;&amp;nbsp;&amp;nbsp;&amp;nbsp;&amp;nbsp;&amp;nbsp;&amp;nbsp;&amp;nbsp;&amp;nbsp;&amp;nbsp;&amp;nbsp;&amp;nbsp;&amp;nbsp;&amp;nbsp;&amp;nbsp;&amp;nbsp;&amp;nbsp;&amp;nbsp; Free memory chunk&lt;br&gt;&lt;/font&gt;" style="rounded=0;whiteSpace=wrap;html=1;strokeWidth=2;fillColor=#fff2cc;strokeColor=default;" vertex="1" parent="1">
          <mxGeometry x="122" y="621" width="560" height="42" as="geometry" />
        </mxCell>
        <mxCell id="hyikX5WwgJSt7p9jt4j9-92" value="&lt;font style=&quot;font-size: 24px;&quot;&gt;0&lt;/font&gt;" style="text;html=1;strokeColor=none;fillColor=none;align=center;verticalAlign=middle;whiteSpace=wrap;rounded=0;" vertex="1" parent="1">
          <mxGeometry x="101" y="661" width="60" height="30" as="geometry" />
        </mxCell>
        <mxCell id="hyikX5WwgJSt7p9jt4j9-93" value="&lt;font style=&quot;font-size: 24px;&quot;&gt;4MB&lt;/font&gt;" style="text;html=1;strokeColor=none;fillColor=none;align=center;verticalAlign=middle;whiteSpace=wrap;rounded=0;" vertex="1" parent="1">
          <mxGeometry x="631" y="661" width="60" height="30" as="geometry" />
        </mxCell>
        <mxCell id="hyikX5WwgJSt7p9jt4j9-94" value="&lt;font style=&quot;font-size: 18px;&quot;&gt;16KB&lt;/font&gt;" style="rounded=0;whiteSpace=wrap;html=1;strokeWidth=2;fillColor=#e1d5e7;strokeColor=default;" vertex="1" parent="1">
          <mxGeometry x="121" y="621" width="50" height="41" as="geometry" />
        </mxCell>
        <mxCell id="hyikX5WwgJSt7p9jt4j9-95" value="&lt;font style=&quot;font-size: 24px;&quot;&gt;(d)&lt;/font&gt;" style="text;html=1;strokeColor=none;fillColor=none;align=center;verticalAlign=middle;whiteSpace=wrap;rounded=0;" vertex="1" parent="1">
          <mxGeometry x="366" y="661" width="60" height="30" as="geometry" />
        </mxCell>
        <mxCell id="hyikX5WwgJSt7p9jt4j9-96" value="&lt;div&gt;&lt;font style=&quot;font-size: 16px;&quot;&gt;&lt;font style=&quot;font-size: 16px;&quot;&gt;Free &lt;/font&gt;&lt;font style=&quot;font-size: 16px;&quot;&gt;mem&lt;/font&gt;&lt;/font&gt;&lt;/div&gt;&lt;div&gt;&lt;font size=&quot;3&quot;&gt;chunk&lt;br&gt;&lt;/font&gt;&lt;/div&gt;" style="rounded=0;whiteSpace=wrap;html=1;strokeWidth=2;fillColor=#fff2cc;strokeColor=default;" vertex="1" parent="1">
          <mxGeometry x="171" y="621.5" width="79" height="41" as="geometry" />
        </mxCell>
        <mxCell id="hyikX5WwgJSt7p9jt4j9-97" value="&lt;font style=&quot;font-size: 18px;&quot;&gt;1MB&lt;/font&gt;" style="rounded=0;whiteSpace=wrap;html=1;strokeWidth=2;fillColor=#e1d5e7;strokeColor=default;" vertex="1" parent="1">
          <mxGeometry x="250" y="622" width="140" height="41" as="geometry" />
        </mxCell>
        <mxCell id="hyikX5WwgJSt7p9jt4j9-98" value="&lt;font style=&quot;font-size: 18px;&quot;&gt;1KB&lt;/font&gt;" style="rounded=0;whiteSpace=wrap;html=1;strokeWidth=2;fillColor=#e1d5e7;strokeColor=default;" vertex="1" parent="1">
          <mxGeometry x="390" y="622" width="40" height="41" as="geometry" />
        </mxCell>
        <mxCell id="hyikX5WwgJSt7p9jt4j9-99" value="" style="endArrow=classic;html=1;rounded=0;strokeWidth=3;" edge="1" parent="1">
          <mxGeometry width="50" height="50" relative="1" as="geometry">
            <mxPoint x="146" y="579" as="sourcePoint" />
            <mxPoint x="146" y="622" as="targetPoint" />
          </mxGeometry>
        </mxCell>
        <mxCell id="hyikX5WwgJSt7p9jt4j9-100" value="&lt;font style=&quot;font-size: 24px;&quot;&gt;memfree(16KB)&lt;/font&gt;" style="text;html=1;strokeColor=none;fillColor=none;align=center;verticalAlign=middle;whiteSpace=wrap;rounded=0;" vertex="1" parent="1">
          <mxGeometry x="104" y="550" width="140" height="30" as="geometry" />
        </mxCell>
        <mxCell id="hyikX5WwgJSt7p9jt4j9-101" value="&lt;font style=&quot;font-size: 24px;&quot;&gt;&amp;nbsp;&amp;nbsp;&amp;nbsp;&amp;nbsp;&amp;nbsp;&amp;nbsp;&amp;nbsp;&amp;nbsp;&amp;nbsp;&amp;nbsp;&amp;nbsp;&amp;nbsp;&amp;nbsp;&amp;nbsp;&amp;nbsp;&amp;nbsp;&amp;nbsp;&amp;nbsp;&amp;nbsp;&amp;nbsp;&amp;nbsp;&amp;nbsp;&amp;nbsp;&amp;nbsp;&amp;nbsp;&amp;nbsp;&amp;nbsp;&amp;nbsp;&amp;nbsp;&amp;nbsp;&amp;nbsp;&amp;nbsp;&amp;nbsp;&amp;nbsp;&amp;nbsp;&amp;nbsp;&amp;nbsp;&amp;nbsp;&amp;nbsp;&amp;nbsp;&amp;nbsp;&amp;nbsp;&amp;nbsp;&amp;nbsp;&amp;nbsp;&amp;nbsp;&amp;nbsp;&amp;nbsp; Free memory chunk&lt;br&gt;&lt;/font&gt;" style="rounded=0;whiteSpace=wrap;html=1;strokeWidth=2;fillColor=#fff2cc;strokeColor=default;" vertex="1" parent="1">
          <mxGeometry x="123" y="748" width="560" height="42" as="geometry" />
        </mxCell>
        <mxCell id="hyikX5WwgJSt7p9jt4j9-102" value="&lt;font style=&quot;font-size: 24px;&quot;&gt;0&lt;/font&gt;" style="text;html=1;strokeColor=none;fillColor=none;align=center;verticalAlign=middle;whiteSpace=wrap;rounded=0;" vertex="1" parent="1">
          <mxGeometry x="102" y="788" width="60" height="30" as="geometry" />
        </mxCell>
        <mxCell id="hyikX5WwgJSt7p9jt4j9-103" value="&lt;font style=&quot;font-size: 24px;&quot;&gt;4MB&lt;/font&gt;" style="text;html=1;strokeColor=none;fillColor=none;align=center;verticalAlign=middle;whiteSpace=wrap;rounded=0;" vertex="1" parent="1">
          <mxGeometry x="632" y="788" width="60" height="30" as="geometry" />
        </mxCell>
        <mxCell id="hyikX5WwgJSt7p9jt4j9-105" value="&lt;font style=&quot;font-size: 24px;&quot;&gt;(e)&lt;/font&gt;" style="text;html=1;strokeColor=none;fillColor=none;align=center;verticalAlign=middle;whiteSpace=wrap;rounded=0;" vertex="1" parent="1">
          <mxGeometry x="367" y="788" width="60" height="30" as="geometry" />
        </mxCell>
        <mxCell id="hyikX5WwgJSt7p9jt4j9-106" value="&lt;div&gt;&lt;font style=&quot;font-size: 16px;&quot;&gt;Free mem&lt;/font&gt;&lt;/div&gt;&lt;div&gt;&lt;font size=&quot;3&quot;&gt;chunk&lt;br&gt;&lt;/font&gt;&lt;/div&gt;" style="rounded=0;whiteSpace=wrap;html=1;strokeWidth=2;fillColor=#fff2cc;strokeColor=default;" vertex="1" parent="1">
          <mxGeometry x="120" y="748.5" width="131" height="41" as="geometry" />
        </mxCell>
        <mxCell id="hyikX5WwgJSt7p9jt4j9-107" value="&lt;font style=&quot;font-size: 18px;&quot;&gt;1MB&lt;/font&gt;" style="rounded=0;whiteSpace=wrap;html=1;strokeWidth=2;fillColor=#e1d5e7;strokeColor=default;" vertex="1" parent="1">
          <mxGeometry x="251" y="749" width="140" height="41" as="geometry" />
        </mxCell>
        <mxCell id="hyikX5WwgJSt7p9jt4j9-108" value="&lt;font style=&quot;font-size: 18px;&quot;&gt;1KB&lt;/font&gt;" style="rounded=0;whiteSpace=wrap;html=1;strokeWidth=2;fillColor=#e1d5e7;strokeColor=default;" vertex="1" parent="1">
          <mxGeometry x="391" y="749" width="40" height="41" as="geometry" />
        </mxCell>
      </root>
    </mxGraphModel>
  </diagram>
</mxfile>
